<svg width="500" height="150" viewBox="0 0 500 150" fill="none" xmlns="http://www.w3.org/2000/svg">
<g clip-path="url(#clip0_864_571)">
<rect width="500" height="150" rx="6" fill="#282828"/>
<g opacity="0.25">
<path d="M35.9033 39.0971L34.3814 38.3621C35.9346 34.2124 35.8814 29.6321 34.2322 25.5195C32.583 21.4069 29.4569 18.0589 25.4668 16.1321C21.4768 14.2053 16.9109 13.8387 12.6645 15.1042C8.41821 16.3697 4.79789 19.1761 2.51366 22.9728L0.991732 22.2378C0.605935 22.0515 0.161929 22.0261 -0.242609 22.1672C-0.647147 22.3082 -0.97908 22.6042 -1.16539 22.99C-2.82957 26.4525 -3.51549 30.304 -3.14896 34.1281C-2.78243 37.9522 -1.3774 41.6034 0.91418 44.6867L0.587532 45.3631C0.21492 46.1347 0.164084 47.0227 0.446206 47.8318C0.728328 48.6408 1.3203 49.3047 2.09189 49.6773L13.7291 55.2971C14.5007 55.6697 15.3887 55.7205 16.1978 55.4384C17.0068 55.1563 17.6707 54.5643 18.0433 53.7927L18.37 53.1163C22.2097 52.9939 25.9428 51.824 29.1657 49.7333C32.3886 47.6425 34.9785 44.7105 36.6555 41.2542C36.8418 40.8684 36.8672 40.4244 36.7262 40.0199C36.5851 39.6153 36.2891 39.2834 35.9033 39.0971ZM31.4557 36.9493L22.106 32.4342C25.1473 30.64 28.7386 30.0167 32.2066 30.6813C32.4221 32.8004 32.1657 34.941 31.4557 36.9493ZM30.9118 25.9749C31.1135 26.4086 31.2939 26.8508 31.453 27.3014C26.9228 26.7936 22.3709 28.0478 18.7402 30.8043L13.3762 28.214C15.5161 26.1045 18.255 24.7072 21.2189 24.2128C24.1827 23.7184 27.2269 24.1512 29.9356 25.4519C30.2683 25.6126 30.5932 25.7897 30.9118 25.9749ZM24.0673 19.0303C25.2342 19.5947 26.3202 20.313 27.2964 21.1659C24.2268 20.5222 21.0417 20.6989 18.0622 21.6784C15.0827 22.6579 12.414 24.4055 10.3251 26.745L5.43932 24.3856C7.34483 21.3612 10.2967 19.1438 13.7322 18.1561C17.1677 17.1685 20.8465 17.4796 24.0673 19.0303ZM17.3863 49.8877C17.0763 49.8817 16.7711 49.9651 16.5071 50.1279C16.2432 50.2908 16.0317 50.5261 15.898 50.8058L15.134 52.3878L3.49683 46.768L4.26077 45.1861C4.39668 44.9074 4.4495 44.5954 4.41291 44.2875C4.37632 43.9795 4.25188 43.6887 4.05443 43.4495C2.06476 41.037 0.744672 38.1435 0.226672 35.0596C-0.291328 31.9756 0.0109846 28.8097 1.10327 25.8795L32.9765 41.2714C31.3615 43.9485 29.071 46.1539 26.3346 47.6662C23.5982 49.1785 20.5123 49.9446 17.3863 49.8877Z" fill="#FF4545"/>
</g>
<g opacity="0.25">
<path d="M100.059 116.552L98.5769 115.741C100.34 111.676 100.52 107.098 99.083 102.907C97.6458 98.7158 94.6945 95.2127 90.8079 93.0848C86.9214 90.957 82.3801 90.3579 78.0747 91.4052C73.7694 92.4525 70.0106 95.0705 67.5357 98.7458L66.0532 97.9341C65.6774 97.7284 65.2353 97.6804 64.8241 97.8006C64.4129 97.9208 64.0663 98.1995 63.8606 98.5753C62.0219 101.948 61.1404 105.76 61.3114 109.598C61.4824 113.436 62.6993 117.154 64.8307 120.35L64.4699 121.009C64.0584 121.76 63.9624 122.645 64.2029 123.467C64.4433 124.289 65.0007 124.983 65.7523 125.394L77.0876 131.6C77.8392 132.012 78.7235 132.108 79.5459 131.867C80.3683 131.627 81.0615 131.069 81.473 130.318L81.8337 129.659C85.6746 129.732 89.4626 128.755 92.7879 126.831C96.1133 124.907 98.8494 122.111 100.701 118.745C100.906 118.369 100.954 117.927 100.834 117.516C100.714 117.105 100.435 116.758 100.059 116.552ZM95.7271 114.18L86.6199 109.194C89.7487 107.558 93.3672 107.118 96.7968 107.959C96.9039 110.086 96.5386 112.211 95.7271 114.18ZM95.7437 103.193C95.923 103.636 96.0806 104.087 96.2165 104.545C91.7182 103.807 87.1082 104.827 83.3416 107.395L78.1167 104.534C80.3614 102.537 83.1681 101.281 86.1533 100.938C89.1385 100.596 92.1567 101.183 94.7954 102.62C95.1196 102.798 95.435 102.991 95.7437 103.193ZM89.2624 95.9078C90.399 96.5311 91.4469 97.3039 92.3783 98.2055C89.3456 97.4059 86.1556 97.42 83.13 98.2462C80.1044 99.0724 77.35 100.682 75.1446 102.912L70.3855 100.306C72.4428 97.3827 75.5039 95.3188 78.9853 94.5077C82.4667 93.6965 86.1248 94.1949 89.2624 95.9078ZM81.016 126.384C80.7067 126.363 80.3976 126.43 80.1257 126.579C79.8539 126.729 79.6307 126.953 79.4828 127.225L78.6391 128.766L67.3038 122.56L68.1474 121.019C68.2974 120.748 68.366 120.439 68.3452 120.13C68.3244 119.82 68.2149 119.523 68.0299 119.274C66.1659 116.764 64.9951 113.807 64.6351 110.7C64.2751 107.594 64.7385 104.447 65.9789 101.577L97.0254 118.575C95.276 121.166 92.876 123.251 90.066 124.622C87.256 125.993 84.135 126.601 81.016 126.384Z" fill="#FF4545"/>
</g>
<g opacity="0.25">
<path d="M27.0594 159.552L25.5769 158.741C27.3398 154.676 27.5203 150.098 26.083 145.907C24.6458 141.716 21.6945 138.213 17.8079 136.085C13.9214 133.957 9.38009 133.358 5.07474 134.405C0.769376 135.452 -2.98938 138.071 -5.46432 141.746L-6.94677 140.934C-7.32256 140.728 -7.76469 140.68 -8.1759 140.801C-8.58711 140.921 -8.93371 141.2 -9.13945 141.575C-10.9781 144.948 -11.8596 148.76 -11.6886 152.598C-11.5176 156.436 -10.3007 160.154 -8.16935 163.35L-8.53008 164.009C-8.94156 164.76 -9.03763 165.645 -8.79715 166.467C-8.55666 167.289 -7.99933 167.983 -7.24774 168.394L4.08763 174.6C4.83922 175.012 5.72348 175.108 6.54589 174.867C7.36831 174.627 8.0615 174.069 8.47299 173.318L8.83372 172.659C12.6746 172.732 16.4626 171.755 19.7879 169.831C23.1133 167.907 25.8494 165.111 27.7005 161.745C27.9063 161.369 27.9543 160.927 27.8341 160.516C27.7138 160.105 27.4352 159.758 27.0594 159.552ZM22.7271 157.18L13.6199 152.194C16.7487 150.558 20.3672 150.118 23.7968 150.959C23.9039 153.086 23.5386 155.211 22.7271 157.18ZM22.7437 146.193C22.923 146.636 23.0806 147.087 23.2165 147.545C18.7182 146.807 14.1082 147.827 10.3416 150.395L5.11672 147.534C7.36141 145.537 10.1681 144.281 13.1533 143.938C16.1385 143.596 19.1567 144.183 21.7954 145.62C22.1196 145.798 22.435 145.991 22.7437 146.193ZM16.2624 138.908C17.399 139.531 18.4469 140.304 19.3783 141.205C16.3456 140.406 13.1556 140.42 10.13 141.246C7.1044 142.072 4.35005 143.682 2.14456 145.912L-2.61453 143.306C-0.557225 140.383 2.50392 138.319 5.98531 137.508C9.4667 136.697 13.1248 137.195 16.2624 138.908ZM8.01602 169.384C7.70668 169.363 7.39763 169.43 7.12575 169.579C6.85387 169.729 6.63066 169.953 6.48278 170.225L5.63915 171.766L-5.69623 165.56L-4.8526 164.019C-4.70264 163.748 -4.63398 163.439 -4.65481 163.13C-4.67564 162.82 -4.78509 162.523 -4.97008 162.274C-6.8341 159.764 -8.00487 156.807 -8.36488 153.7C-8.72489 150.594 -8.26147 147.447 -7.02114 144.577L24.0254 161.575C22.276 164.166 19.876 166.251 17.066 167.622C14.256 168.993 11.135 169.601 8.01602 169.384Z" fill="#FF4545"/>
</g>
<g opacity="0.25">
<path d="M124.059 32.5523L122.577 31.7407C124.34 27.6756 124.52 23.0985 123.083 18.9071C121.646 14.7158 118.694 11.2127 114.808 9.08484C110.921 6.95698 106.38 6.35795 102.075 7.40522C97.7694 8.45249 94.0106 11.0705 91.5357 14.7458L90.0532 13.9341C89.6774 13.7284 89.2353 13.6804 88.8241 13.8006C88.4129 13.9208 88.0663 14.1995 87.8606 14.5753C86.0219 17.9484 85.1404 21.7599 85.3114 25.5977C85.4824 29.4356 86.6993 33.1536 88.8307 36.3498L88.4699 37.0087C88.0584 37.7603 87.9624 38.6445 88.2029 39.4669C88.4433 40.2893 89.0007 40.9825 89.7523 41.394L101.088 47.6001C101.839 48.0116 102.723 48.1076 103.546 47.8672C104.368 47.6267 105.062 47.0693 105.473 46.3178L105.834 45.6589C109.675 45.7325 113.463 44.7546 116.788 42.831C120.113 40.9073 122.849 38.1112 124.701 34.745C124.906 34.3692 124.954 33.9271 124.834 33.5159C124.714 33.1046 124.435 32.758 124.059 32.5523ZM119.727 30.1804L110.62 25.1942C113.749 23.5575 117.367 23.1183 120.797 23.9589C120.904 26.0863 120.539 28.211 119.727 30.1804ZM119.744 19.1926C119.923 19.6361 120.081 20.0868 120.217 20.5449C115.718 19.8067 111.108 20.8271 107.342 23.3948L102.117 20.5342C104.361 18.5367 107.168 17.2809 110.153 16.9383C113.138 16.5958 116.157 17.1833 118.795 18.6205C119.12 18.7979 119.435 18.9913 119.744 19.1926ZM113.262 11.9078C114.399 12.5311 115.447 13.3039 116.378 14.2055C113.346 13.4059 110.156 13.42 107.13 14.2462C104.104 15.0724 101.35 16.6816 99.1446 18.9116L94.3855 16.306C96.4428 13.3827 99.5039 11.3188 102.985 10.5077C106.467 9.69652 110.125 10.1949 113.262 11.9078ZM105.016 42.3843C104.707 42.3625 104.398 42.4302 104.126 42.5794C103.854 42.7285 103.631 42.9528 103.483 43.2253L102.639 44.7662L91.3038 38.5602L92.1474 37.0193C92.2974 36.7479 92.366 36.439 92.3452 36.1296C92.3244 35.8202 92.2149 35.5233 92.0299 35.2745C90.1659 32.7636 88.9951 29.8065 88.6351 26.7002C88.2751 23.5938 88.7385 20.4474 89.9789 17.5767L121.025 34.5745C119.276 37.1658 116.876 39.2514 114.066 40.6221C111.256 41.9929 108.135 42.6006 105.016 42.3843Z" fill="#FF4545"/>
</g>
<g opacity="0.25">
<path d="M236.903 14.0971L235.381 13.3621C236.935 9.21238 236.881 4.63205 235.232 0.5195C233.583 -3.59305 230.457 -6.94107 226.467 -8.8679C222.477 -10.7947 217.911 -11.1613 213.665 -9.89581C209.418 -8.63028 205.798 -5.82394 203.514 -2.02721L201.992 -2.76217C201.606 -2.94847 201.162 -2.97389 200.757 -2.83283C200.353 -2.69177 200.021 -2.39578 199.835 -2.00999C198.17 1.45247 197.485 5.30402 197.851 9.12813C198.218 12.9522 199.623 16.6034 201.914 19.6867L201.588 20.3631C201.215 21.1347 201.164 22.0227 201.446 22.8318C201.728 23.6408 202.32 24.3047 203.092 24.6773L214.729 30.2971C215.501 30.6697 216.389 30.7205 217.198 30.4384C218.007 30.1563 218.671 29.5643 219.043 28.7927L219.37 28.1163C223.21 27.9939 226.943 26.824 230.166 24.7333C233.389 22.6425 235.979 19.7105 237.655 16.2542C237.842 15.8684 237.867 15.4244 237.726 15.0199C237.585 14.6153 237.289 14.2834 236.903 14.0971ZM232.456 11.9493L223.106 7.43417C226.147 5.63999 229.739 5.01674 233.207 5.68128C233.422 7.80043 233.166 9.941 232.456 11.9493ZM231.912 0.97492C232.113 1.40865 232.294 1.8508 232.453 2.30137C227.923 1.79356 223.371 3.04782 219.74 5.80432L214.376 3.21396C216.516 1.10452 219.255 -0.292832 222.219 -0.787193C225.183 -1.28155 228.227 -0.848814 230.936 0.451907C231.268 0.612597 231.593 0.789652 231.912 0.97492ZM225.067 -5.96974C226.234 -5.40526 227.32 -4.68698 228.296 -3.83407C225.227 -4.47784 222.042 -4.30108 219.062 -3.32159C216.083 -2.34211 213.414 -0.594517 211.325 1.74505L206.439 -0.614369C208.345 -3.63878 211.297 -5.85619 214.732 -6.84386C218.168 -7.83153 221.846 -7.52038 225.067 -5.96974ZM218.386 24.8877C218.076 24.8817 217.771 24.9651 217.507 25.1279C217.243 25.2908 217.032 25.5261 216.898 25.8058L216.134 27.3878L204.497 21.768L205.261 20.1861C205.397 19.9074 205.449 19.5954 205.413 19.2875C205.376 18.9795 205.252 18.6887 205.054 18.4495C203.065 16.037 201.745 13.1435 201.227 10.0596C200.709 6.97562 201.011 3.80966 202.103 0.879455L233.976 16.2714C232.362 18.9485 230.071 21.1539 227.335 22.6662C224.598 24.1785 221.512 24.9446 218.386 24.8877Z" fill="#FF4545"/>
</g>
<g opacity="0.25">
<path d="M327.903 131.097L326.381 130.362C327.935 126.212 327.881 121.632 326.232 117.519C324.583 113.407 321.457 110.059 317.467 108.132C313.477 106.205 308.911 105.839 304.665 107.104C300.418 108.37 296.798 111.176 294.514 114.973L292.992 114.238C292.606 114.052 292.162 114.026 291.757 114.167C291.353 114.308 291.021 114.604 290.835 114.99C289.17 118.452 288.485 122.304 288.851 126.128C289.218 129.952 290.623 133.603 292.914 136.687L292.588 137.363C292.215 138.135 292.164 139.023 292.446 139.832C292.728 140.641 293.32 141.305 294.092 141.677L305.729 147.297C306.501 147.67 307.389 147.721 308.198 147.438C309.007 147.156 309.671 146.564 310.043 145.793L310.37 145.116C314.21 144.994 317.943 143.824 321.166 141.733C324.389 139.643 326.979 136.71 328.655 133.254C328.842 132.868 328.867 132.424 328.726 132.02C328.585 131.615 328.289 131.283 327.903 131.097ZM323.456 128.949L314.106 124.434C317.147 122.64 320.739 122.017 324.207 122.681C324.422 124.8 324.166 126.941 323.456 128.949ZM322.912 117.975C323.113 118.409 323.294 118.851 323.453 119.301C318.923 118.794 314.371 120.048 310.74 122.804L305.376 120.214C307.516 118.105 310.255 116.707 313.219 116.213C316.183 115.718 319.227 116.151 321.936 117.452C322.268 117.613 322.593 117.79 322.912 117.975ZM316.067 111.03C317.234 111.595 318.32 112.313 319.296 113.166C316.227 112.522 313.042 112.699 310.062 113.678C307.083 114.658 304.414 116.405 302.325 118.745L297.439 116.386C299.345 113.361 302.297 111.144 305.732 110.156C309.168 109.168 312.846 109.48 316.067 111.03ZM309.386 141.888C309.076 141.882 308.771 141.965 308.507 142.128C308.243 142.291 308.032 142.526 307.898 142.806L307.134 144.388L295.497 138.768L296.261 137.186C296.397 136.907 296.449 136.595 296.413 136.287C296.376 135.98 296.252 135.689 296.054 135.45C294.065 133.037 292.745 130.144 292.227 127.06C291.709 123.976 292.011 120.81 293.103 117.879L324.976 133.271C323.362 135.949 321.071 138.154 318.335 139.666C315.598 141.179 312.512 141.945 309.386 141.888Z" fill="#FF4545"/>
</g>
<g opacity="0.25">
<path d="M508.903 52.0971L507.381 51.3621C508.935 47.2124 508.881 42.6321 507.232 38.5195C505.583 34.4069 502.457 31.0589 498.467 29.1321C494.477 27.2053 489.911 26.8387 485.665 28.1042C481.418 29.3697 477.798 32.1761 475.514 35.9728L473.992 35.2378C473.606 35.0515 473.162 35.0261 472.757 35.1672C472.353 35.3082 472.021 35.6042 471.835 35.99C470.17 39.4525 469.485 43.304 469.851 47.1281C470.218 50.9522 471.623 54.6034 473.914 57.6867L473.588 58.3631C473.215 59.1347 473.164 60.0227 473.446 60.8318C473.728 61.6408 474.32 62.3047 475.092 62.6773L486.729 68.2971C487.501 68.6697 488.389 68.7205 489.198 68.4384C490.007 68.1563 490.671 67.5643 491.043 66.7927L491.37 66.1163C495.21 65.9939 498.943 64.824 502.166 62.7333C505.389 60.6425 507.979 57.7105 509.655 54.2542C509.842 53.8684 509.867 53.4244 509.726 53.0199C509.585 52.6153 509.289 52.2834 508.903 52.0971ZM504.456 49.9493L495.106 45.4342C498.147 43.64 501.739 43.0167 505.207 43.6813C505.422 45.8004 505.166 47.941 504.456 49.9493ZM503.912 38.9749C504.113 39.4086 504.294 39.8508 504.453 40.3014C499.923 39.7936 495.371 41.0478 491.74 43.8043L486.376 41.214C488.516 39.1045 491.255 37.7072 494.219 37.2128C497.183 36.7184 500.227 37.1512 502.936 38.4519C503.268 38.6126 503.593 38.7897 503.912 38.9749ZM497.067 32.0303C498.234 32.5947 499.32 33.313 500.296 34.1659C497.227 33.5222 494.042 33.6989 491.062 34.6784C488.083 35.6579 485.414 37.4055 483.325 39.745L478.439 37.3856C480.345 34.3612 483.297 32.1438 486.732 31.1561C490.168 30.1685 493.846 30.4796 497.067 32.0303ZM490.386 62.8877C490.076 62.8817 489.771 62.9651 489.507 63.1279C489.243 63.2908 489.032 63.5261 488.898 63.8058L488.134 65.3878L476.497 59.768L477.261 58.1861C477.397 57.9074 477.449 57.5954 477.413 57.2875C477.376 56.9795 477.252 56.6887 477.054 56.4495C475.065 54.037 473.745 51.1435 473.227 48.0596C472.709 44.9756 473.011 41.8097 474.103 38.8795L505.976 54.2714C504.362 56.9485 502.071 59.1539 499.335 60.6662C496.598 62.1785 493.512 62.9446 490.386 62.8877Z" fill="#FF4545"/>
</g>
<g opacity="0.25">
<path d="M514.903 127.097L513.381 126.362C514.935 122.212 514.881 117.632 513.232 113.519C511.583 109.407 508.457 106.059 504.467 104.132C500.477 102.205 495.911 101.839 491.665 103.104C487.418 104.37 483.798 107.176 481.514 110.973L479.992 110.238C479.606 110.052 479.162 110.026 478.757 110.167C478.353 110.308 478.021 110.604 477.835 110.99C476.17 114.452 475.485 118.304 475.851 122.128C476.218 125.952 477.623 129.603 479.914 132.687L479.588 133.363C479.215 134.135 479.164 135.023 479.446 135.832C479.728 136.641 480.32 137.305 481.092 137.677L492.729 143.297C493.501 143.67 494.389 143.721 495.198 143.438C496.007 143.156 496.671 142.564 497.043 141.793L497.37 141.116C501.21 140.994 504.943 139.824 508.166 137.733C511.389 135.643 513.979 132.71 515.655 129.254C515.842 128.868 515.867 128.424 515.726 128.02C515.585 127.615 515.289 127.283 514.903 127.097ZM510.456 124.949L501.106 120.434C504.147 118.64 507.739 118.017 511.207 118.681C511.422 120.8 511.166 122.941 510.456 124.949ZM509.912 113.975C510.113 114.409 510.294 114.851 510.453 115.301C505.923 114.794 501.371 116.048 497.74 118.804L492.376 116.214C494.516 114.105 497.255 112.707 500.219 112.213C503.183 111.718 506.227 112.151 508.936 113.452C509.268 113.613 509.593 113.79 509.912 113.975ZM503.067 107.03C504.234 107.595 505.32 108.313 506.296 109.166C503.227 108.522 500.042 108.699 497.062 109.678C494.083 110.658 491.414 112.405 489.325 114.745L484.439 112.386C486.345 109.361 489.297 107.144 492.732 106.156C496.168 105.168 499.846 105.48 503.067 107.03ZM496.386 137.888C496.076 137.882 495.771 137.965 495.507 138.128C495.243 138.291 495.032 138.526 494.898 138.806L494.134 140.388L482.497 134.768L483.261 133.186C483.397 132.907 483.449 132.595 483.413 132.287C483.376 131.98 483.252 131.689 483.054 131.45C481.065 129.037 479.745 126.144 479.227 123.06C478.709 119.976 479.011 116.81 480.103 113.879L511.976 129.271C510.362 131.949 508.071 134.154 505.335 135.666C502.598 137.179 499.512 137.945 496.386 137.888Z" fill="#FF4545"/>
</g>
<g opacity="0.25">
<path d="M223.903 146.097L222.381 145.362C223.935 141.212 223.881 136.632 222.232 132.519C220.583 128.407 217.457 125.059 213.467 123.132C209.477 121.205 204.911 120.839 200.665 122.104C196.418 123.37 192.798 126.176 190.514 129.973L188.992 129.238C188.606 129.052 188.162 129.026 187.757 129.167C187.353 129.308 187.021 129.604 186.835 129.99C185.17 133.452 184.485 137.304 184.851 141.128C185.218 144.952 186.623 148.603 188.914 151.687L188.588 152.363C188.215 153.135 188.164 154.023 188.446 154.832C188.728 155.641 189.32 156.305 190.092 156.677L201.729 162.297C202.501 162.67 203.389 162.721 204.198 162.438C205.007 162.156 205.671 161.564 206.043 160.793L206.37 160.116C210.21 159.994 213.943 158.824 217.166 156.733C220.389 154.643 222.979 151.71 224.655 148.254C224.842 147.868 224.867 147.424 224.726 147.02C224.585 146.615 224.289 146.283 223.903 146.097ZM219.456 143.949L210.106 139.434C213.147 137.64 216.739 137.017 220.207 137.681C220.422 139.8 220.166 141.941 219.456 143.949ZM218.912 132.975C219.113 133.409 219.294 133.851 219.453 134.301C214.923 133.794 210.371 135.048 206.74 137.804L201.376 135.214C203.516 133.105 206.255 131.707 209.219 131.213C212.183 130.718 215.227 131.151 217.936 132.452C218.268 132.613 218.593 132.79 218.912 132.975ZM212.067 126.03C213.234 126.595 214.32 127.313 215.296 128.166C212.227 127.522 209.042 127.699 206.062 128.678C203.083 129.658 200.414 131.405 198.325 133.745L193.439 131.386C195.345 128.361 198.297 126.144 201.732 125.156C205.168 124.168 208.846 124.48 212.067 126.03ZM205.386 156.888C205.076 156.882 204.771 156.965 204.507 157.128C204.243 157.291 204.032 157.526 203.898 157.806L203.134 159.388L191.497 153.768L192.261 152.186C192.397 151.907 192.449 151.595 192.413 151.287C192.376 150.98 192.252 150.689 192.054 150.45C190.065 148.037 188.745 145.144 188.227 142.06C187.709 138.976 188.011 135.81 189.103 132.879L220.976 148.271C219.362 150.949 217.071 153.154 214.335 154.666C211.598 156.179 208.512 156.945 205.386 156.888Z" fill="#FF4545"/>
</g>
<g opacity="0.25">
<path d="M429.903 164.097L428.381 163.362C429.935 159.212 429.881 154.632 428.232 150.519C426.583 146.407 423.457 143.059 419.467 141.132C415.477 139.205 410.911 138.839 406.665 140.104C402.418 141.37 398.798 144.176 396.514 147.973L394.992 147.238C394.606 147.052 394.162 147.026 393.757 147.167C393.353 147.308 393.021 147.604 392.835 147.99C391.17 151.452 390.485 155.304 390.851 159.128C391.218 162.952 392.623 166.603 394.914 169.687L394.588 170.363C394.215 171.135 394.164 172.023 394.446 172.832C394.728 173.641 395.32 174.305 396.092 174.677L407.729 180.297C408.501 180.67 409.389 180.721 410.198 180.438C411.007 180.156 411.671 179.564 412.043 178.793L412.37 178.116C416.21 177.994 419.943 176.824 423.166 174.733C426.389 172.643 428.979 169.71 430.655 166.254C430.842 165.868 430.867 165.424 430.726 165.02C430.585 164.615 430.289 164.283 429.903 164.097ZM425.456 161.949L416.106 157.434C419.147 155.64 422.739 155.017 426.207 155.681C426.422 157.8 426.166 159.941 425.456 161.949ZM424.912 150.975C425.113 151.409 425.294 151.851 425.453 152.301C420.923 151.794 416.371 153.048 412.74 155.804L407.376 153.214C409.516 151.105 412.255 149.707 415.219 149.213C418.183 148.718 421.227 149.151 423.936 150.452C424.268 150.613 424.593 150.79 424.912 150.975ZM418.067 144.03C419.234 144.595 420.32 145.313 421.296 146.166C418.227 145.522 415.042 145.699 412.062 146.678C409.083 147.658 406.414 149.405 404.325 151.745L399.439 149.386C401.345 146.361 404.297 144.144 407.732 143.156C411.168 142.168 414.846 142.48 418.067 144.03ZM411.386 174.888C411.076 174.882 410.771 174.965 410.507 175.128C410.243 175.291 410.032 175.526 409.898 175.806L409.134 177.388L397.497 171.768L398.261 170.186C398.397 169.907 398.449 169.595 398.413 169.287C398.376 168.98 398.252 168.689 398.054 168.45C396.065 166.037 394.745 163.144 394.227 160.06C393.709 156.976 394.011 153.81 395.103 150.879L426.976 166.271C425.362 168.949 423.071 171.154 420.335 172.666C417.598 174.179 414.512 174.945 411.386 174.888Z" fill="#FF4545"/>
</g>
<g opacity="0.25">
<path d="M419.903 17.0971L418.381 16.3621C419.935 12.2124 419.881 7.63205 418.232 3.5195C416.583 -0.593051 413.457 -3.94107 409.467 -5.8679C405.477 -7.79473 400.911 -8.16134 396.665 -6.89581C392.418 -5.63028 388.798 -2.82394 386.514 0.972791L384.992 0.237833C384.606 0.0515264 384.162 0.0261082 383.757 0.167169C383.353 0.308231 383.021 0.604216 382.835 0.990013C381.17 4.45247 380.485 8.30402 380.851 12.1281C381.218 15.9522 382.623 19.6034 384.914 22.6867L384.588 23.3631C384.215 24.1347 384.164 25.0227 384.446 25.8318C384.728 26.6408 385.32 27.3047 386.092 27.6773L397.729 33.2971C398.501 33.6697 399.389 33.7205 400.198 33.4384C401.007 33.1563 401.671 32.5643 402.043 31.7927L402.37 31.1163C406.21 30.9939 409.943 29.824 413.166 27.7333C416.389 25.6425 418.979 22.7105 420.655 19.2542C420.842 18.8684 420.867 18.4244 420.726 18.0199C420.585 17.6153 420.289 17.2834 419.903 17.0971ZM415.456 14.9493L406.106 10.4342C409.147 8.63999 412.739 8.01674 416.207 8.68128C416.422 10.8004 416.166 12.941 415.456 14.9493ZM414.912 3.97492C415.113 4.40865 415.294 4.8508 415.453 5.30137C410.923 4.79356 406.371 6.04782 402.74 8.80432L397.376 6.21396C399.516 4.10452 402.255 2.70717 405.219 2.21281C408.183 1.71845 411.227 2.15119 413.936 3.45191C414.268 3.6126 414.593 3.78965 414.912 3.97492ZM408.067 -2.96974C409.234 -2.40526 410.32 -1.68698 411.296 -0.834066C408.227 -1.47784 405.042 -1.30108 402.062 -0.321594C399.083 0.65789 396.414 2.40548 394.325 4.74505L389.439 2.38563C391.345 -0.63878 394.297 -2.85619 397.732 -3.84386C401.168 -4.83153 404.846 -4.52038 408.067 -2.96974ZM401.386 27.8877C401.076 27.8817 400.771 27.9651 400.507 28.1279C400.243 28.2908 400.032 28.5261 399.898 28.8058L399.134 30.3878L387.497 24.768L388.261 23.1861C388.397 22.9074 388.449 22.5954 388.413 22.2875C388.376 21.9795 388.252 21.6887 388.054 21.4495C386.065 19.037 384.745 16.1435 384.227 13.0596C383.709 9.97562 384.011 6.80966 385.103 3.87946L416.976 19.2714C415.362 21.9485 413.071 24.1539 410.335 25.6662C407.598 27.1785 404.512 27.9446 401.386 27.8877Z" fill="#FF4545"/>
</g>
<g opacity="0.25">
<path d="M355.095 47.4598L353.641 46.599C355.539 42.5952 355.872 38.0267 354.576 33.7896C353.28 29.5525 350.448 25.9526 346.635 23.6958C342.821 21.439 338.303 20.6883 333.965 21.5909C329.627 22.4934 325.782 24.9842 323.186 28.5745L321.731 27.7137C321.363 27.4955 320.922 27.4327 320.507 27.5391C320.092 27.6455 319.737 27.9124 319.519 28.2811C317.568 31.5907 316.559 35.3706 316.602 39.212C316.644 43.0534 317.736 46.8101 319.759 50.0759L319.377 50.7223C318.94 51.4597 318.815 52.3403 319.027 53.1703C319.24 54.0003 319.774 54.7117 320.511 55.1481L331.633 61.7302C332.37 62.1666 333.251 62.2922 334.081 62.0794C334.911 61.8666 335.622 61.3327 336.059 60.5954L336.441 59.9489C340.277 60.151 344.096 59.3005 347.484 57.4893C350.872 55.6781 353.7 52.9751 355.663 49.6727C355.881 49.304 355.944 48.8637 355.837 48.4487C355.731 48.0337 355.464 47.678 355.095 47.4598ZM350.845 44.9442L341.91 39.656C345.092 38.1249 348.723 37.8071 352.122 38.762C352.158 40.8918 351.722 43.003 350.845 44.9442ZM351.229 33.9631C351.394 34.4123 351.536 34.8681 351.657 35.3305C347.185 34.4421 342.544 35.3076 338.693 37.7478L333.567 34.7139C335.878 32.7926 338.725 31.6315 341.72 31.3891C344.715 31.1467 347.711 31.8348 350.301 33.3596C350.619 33.5478 350.927 33.7516 351.229 33.9631ZM344.995 26.4655C346.11 27.1264 347.132 27.9338 348.033 28.8661C345.028 27.9655 341.84 27.8728 338.788 28.5973C335.737 29.3217 332.93 30.8378 330.651 32.9927L325.982 30.2293C328.136 27.3765 331.264 25.4162 334.771 24.7221C338.278 24.0279 341.917 24.6485 344.995 26.4655ZM335.733 56.6488C335.425 56.6167 335.114 56.674 334.837 56.814C334.56 56.9539 334.33 57.1706 334.173 57.438L333.278 58.9498L322.157 52.3678L323.052 50.856C323.211 50.5898 323.29 50.2834 323.279 49.9735C323.269 49.6635 323.169 49.3632 322.993 49.1082C321.214 46.5364 320.143 43.5418 319.887 40.4251C319.631 37.3084 320.199 34.1793 321.535 31.3518L351.995 49.3793C350.16 51.9105 347.692 53.9147 344.837 55.1906C341.983 56.4665 338.843 56.9694 335.733 56.6488Z" fill="#FF4545"/>
</g>
<path d="M180.149 47.0104C183.326 46.8152 185.832 49.4004 185.832 52.4541V54.0102H183.393C173.671 54.0102 164.384 56.9255 156.875 62.0916V59.3379C156.875 57.4672 155.522 55.9124 153.741 55.5989C161.292 50.3883 170.235 47.6189 180.149 47.0104Z" fill="#FF4545"/>
<path fill-rule="evenodd" clip-rule="evenodd" d="M142.773 65.5527V73.4399C142.773 73.7463 142.81 74.0441 142.878 74.3295C141.478 75.3832 140.173 76.3557 139.122 77.1236V83.3649C139.122 84.1045 138.827 84.8139 138.302 85.3369C137.777 85.8599 137.065 86.1537 136.323 86.1537C135.58 86.1537 134.868 85.8599 134.343 85.3369C133.818 84.8139 133.523 84.1045 133.523 83.3649V81.8032C133.478 81.4524 133.301 81.1316 133.028 80.9058C132.755 80.68 132.406 80.566 132.052 80.5869C131.697 80.6078 131.364 80.7621 131.12 81.0184C130.875 81.2748 130.737 81.6141 130.735 81.9677L129.919 98.9116C129.919 99.6512 129.624 100.361 129.099 100.884C128.574 101.407 127.861 101.7 127.119 101.7C126.376 101.7 125.664 101.407 125.139 100.884C124.614 100.361 124.319 99.6513 125.135 87.5508V87.5453L120.634 90.8862C117.865 92.9415 113.929 90.9727 113.929 87.5369V76.6429H105L107.5 71.2857L105 65.9286H113.929V56.8967H116.364C126.194 56.8967 135.509 60.0569 142.773 65.5527ZM125.661 65.3411C125.767 65.0883 125.821 64.8173 125.821 64.5435C125.821 63.9906 125.601 63.4576 125.208 63.0667C124.816 62.6757 124.284 62.4561 123.729 62.4561C123.174 62.4561 122.641 62.6757 122.249 63.0667C121.856 63.4576 121.636 63.9878 121.636 64.5407C121.636 64.8145 121.69 65.0856 121.795 65.3386C121.9 65.5916 122.054 65.8215 122.248 66.0152C122.442 66.2089 122.673 66.3626 122.926 66.4675C123.18 66.5724 123.452 66.6265 123.727 66.6267C124.002 66.6269 124.274 66.5732 124.528 66.4686C124.782 66.364 125.013 66.2106 125.207 66.0171C125.402 65.8237 125.556 65.594 125.661 65.3411ZM133.537 71.5951C133.93 71.2041 134.15 70.6739 134.15 70.121C134.15 69.5682 133.93 69.0379 133.537 68.647C133.145 68.2561 132.612 68.0364 132.057 68.0364C131.502 68.0364 130.97 68.2561 130.578 68.647C130.185 69.0379 129.965 69.5682 129.965 70.121C129.965 70.6739 130.185 71.2041 130.578 71.5951C130.97 71.986 131.502 72.2056 132.057 72.2056C132.612 72.2056 133.145 71.986 133.537 71.5951ZM125.227 78.5805C125.622 78.1874 125.844 77.6544 125.844 77.0985C125.844 76.5427 125.622 76.0096 125.227 75.6166C124.833 75.2236 124.298 75.0028 123.74 75.0028C123.182 75.0028 122.647 75.2236 122.252 75.6166C121.858 76.0096 121.636 76.5427 121.636 77.0985C121.636 77.6544 121.858 78.1874 122.252 78.5805C122.647 78.9735 123.182 79.1943 123.74 79.1943C124.298 79.1943 124.833 78.9735 125.227 78.5805Z" fill="#FF4545"/>
<path d="M145.88 55.6038C144.113 55.9284 142.773 57.4768 142.773 59.3379V62.1155C135.284 56.9972 126.042 54.1107 116.367 54.1107H113.929V52.5546C113.929 49.5009 116.434 46.9157 119.612 47.1109C129.465 47.7157 138.359 50.4549 145.88 55.6038Z" fill="#FF4545"/>
<path fill-rule="evenodd" clip-rule="evenodd" d="M156.805 74.1708C156.851 73.9343 156.875 73.6899 156.875 73.4399V65.5369C164.156 59.9888 173.516 56.7962 183.396 56.7962H185.832V65.9286H195L192.5 71.2857L195 76.6429H185.832V87.4363C185.832 90.8721 181.896 92.841 179.127 90.7857L174.625 87.4447V87.4503C174.625 87.5845 174.645 88.1275 174.674 88.9295L174.674 88.9335C174.806 92.5547 175.128 101.437 174.699 101.865C174.174 102.388 173.462 102.682 172.719 102.682C171.977 102.682 171.265 102.388 170.74 101.865C170.215 101.342 169.026 88.1899 169.026 87.4503V81.8672C169.023 81.5136 168.885 81.1742 168.641 80.9179C168.396 80.6615 168.063 80.5073 167.709 80.4864C167.355 80.4655 167.005 80.5794 166.732 80.8053C166.459 81.0311 166.282 81.3518 166.237 81.7026L166.626 88.6742C166.626 89.4139 166.331 90.1232 165.806 90.6462C165.281 91.1692 164.569 91.463 163.826 91.463C163.084 91.463 162.372 91.1692 161.847 90.6462C161.322 90.1232 161.027 89.4139 161.027 88.6742L160.638 77.0231C159.568 76.241 158.235 75.2468 156.805 74.1708ZM174.099 65.2406C173.994 64.9878 173.939 64.7167 173.939 64.443C173.939 63.8901 174.16 63.3571 174.552 62.9661C174.945 62.5752 175.477 62.3556 176.032 62.3556C176.587 62.3556 177.119 62.5752 177.512 62.9661C177.904 63.3571 178.125 63.8873 178.125 64.4402C178.125 64.7139 178.071 64.985 177.966 65.238C177.861 65.491 177.707 65.7209 177.513 65.9146C177.318 66.1083 177.088 66.262 176.834 66.367C176.58 66.4719 176.308 66.526 176.033 66.5262C175.758 66.5264 175.486 66.4726 175.232 66.368C174.978 66.2634 174.748 66.11 174.553 65.9166C174.359 65.7231 174.204 65.4934 174.099 65.2406ZM166.223 71.4945C165.831 71.1036 165.61 70.5734 165.61 70.0205C165.61 69.4676 165.831 68.9374 166.223 68.5465C166.616 68.1555 167.148 67.9359 167.703 67.9359C168.258 67.9359 168.79 68.1555 169.183 68.5465C169.575 68.9374 169.796 69.4676 169.796 70.0205C169.796 70.5734 169.575 71.1036 169.183 71.4945C168.79 71.8855 168.258 72.1051 167.703 72.1051C167.148 72.1051 166.616 71.8855 166.223 71.4945ZM174.533 78.4799C174.138 78.0869 173.917 77.5538 173.917 76.998C173.917 76.4422 174.138 75.9091 174.533 75.5161C174.928 75.123 175.463 74.9022 176.021 74.9022C176.579 74.9022 177.114 75.123 177.508 75.5161C177.903 75.9091 178.125 76.4422 178.125 76.998C178.125 77.5538 177.903 78.0869 177.508 78.4799C177.114 78.8729 176.579 79.0937 176.021 79.0937C175.463 79.0937 174.928 78.8729 174.533 78.4799Z" fill="#FF4545"/>
<path d="M144.4 59.3368C144.4 58.1386 145.372 57.1673 146.57 57.1673H153.079C154.277 57.1673 155.248 58.1394 155.248 59.3376V73.4388C155.248 74.637 154.277 75.6083 153.079 75.6083H146.57C145.372 75.6083 144.4 74.637 144.4 73.4388V59.3368Z" fill="#FF4545"/>
<path d="M215.42 62.512C218.084 62.512 220.412 63.052 222.404 64.132C224.42 65.212 225.968 66.712 227.048 68.632C228.128 70.552 228.668 72.736 228.668 75.184C228.668 77.608 228.128 79.792 227.048 81.736C225.968 83.68 224.42 85.216 222.404 86.344C220.412 87.448 218.084 88 215.42 88H204.8V62.512H215.42ZM214.7 80.872C216.5 80.872 217.928 80.38 218.984 79.396C220.04 78.412 220.568 77.008 220.568 75.184C220.568 73.36 220.04 71.956 218.984 70.972C217.928 69.988 216.5 69.496 214.7 69.496H212.792V80.872H214.7ZM239.546 62.512V88H231.554V62.512H239.546ZM267.6 88H259.608L251.148 75.184V88H243.156V62.512H251.148L259.608 75.544V62.512H267.6V88ZM279.202 68.884V72.016H287.122V78.028H279.202V81.628H288.202V88H271.21V62.512H288.202V68.884H279.202ZM321.85 62.512V88H313.894V75.292L309.97 88H303.13L299.206 75.292V88H291.214V62.512H301.006L306.622 77.812L312.094 62.512H321.85ZM341.8 84.148H333.304L332.044 88H323.656L332.98 62.512H342.196L351.484 88H343.06L341.8 84.148ZM339.856 78.136L337.552 71.044L335.248 78.136H339.856ZM373.316 62.512V68.848H366.548V88H358.556V68.848H351.86V62.512H373.316ZM383.476 68.884V72.016H391.396V78.028H383.476V81.628H392.476V88H375.484V62.512H392.476V68.884H383.476Z" fill="#FF4545"/>
</g>
<defs>
<clipPath id="clip0_864_571">
<rect width="500" height="150" fill="white"/>
</clipPath>
</defs>
</svg>
